<?xml version="1.0" standalone="no"?>
<!DOCTYPE svg PUBLIC "-//W3C//DTD SVG 20010904//EN"
 "http://www.w3.org/TR/2001/REC-SVG-20010904/DTD/svg10.dtd">
<svg version="1.0" xmlns="http://www.w3.org/2000/svg"
 width="544.000000pt" height="544.000000pt" viewBox="0 0 544.000000 544.000000"
 preserveAspectRatio="xMidYMid meet">
<metadata>
Created by potrace 1.11, written by Peter Selinger 2001-2013
</metadata>
<g transform="translate(0.000000,544.000000) scale(0.100000,-0.100000)"
fill="#000000" stroke="none">
<path d="M140 5199 c-51 -23 -95 -68 -121 -124 -18 -39 -18 -103 -16 -1760 l2
-1720 22 -41 c25 -48 70 -88 122 -111 32 -14 124 -15 791 -16 681 0 860 3 970
18 19 3 49 7 65 9 57 7 209 52 285 83 125 51 296 149 379 218 178 148 340 369
429 585 30 73 43 107 47 123 2 4 4 9 5 12 1 3 3 8 4 13 1 4 4 12 7 17 8 12 59
216 65 254 2 14 6 37 8 51 10 43 17 104 32 250 14 131 6 530 -11 615 -2 11 -7
40 -10 65 -5 45 -7 53 -25 140 -6 25 -13 56 -16 70 -12 57 -96 289 -125 345
-65 127 -85 161 -101 179 -10 11 -18 24 -18 29 0 5 -11 23 -25 41 -14 17 -29
36 -33 41 -63 86 -192 215 -282 283 -41 32 -77 60 -80 63 -3 3 -12 9 -20 12
-8 4 -33 18 -55 32 -146 92 -375 181 -540 211 -16 3 -41 7 -55 10 -93 19 -227
22 -900 22 -732 1 -756 0 -800 -19z m1450 -612 c39 -7 89 -18 105 -21 53 -14
80 -23 145 -49 67 -27 171 -86 225 -127 11 -8 56 -52 101 -97 269 -269 385
-639 351 -1113 -8 -102 -10 -116 -32 -227 -42 -205 -140 -420 -255 -558 -41
-49 -143 -145 -172 -163 -16 -9 -28 -20 -28 -24 0 -4 -4 -8 -9 -8 -5 0 -37
-16 -72 -36 -60 -33 -156 -71 -208 -81 -14 -2 -28 -6 -32 -9 -19 -11 -180 -18
-449 -18 -275 1 -298 2 -341 21 -56 25 -94 64 -122 123 -21 45 -21 49 -21
1130 l-1 1085 29 52 c16 29 42 62 58 75 62 48 104 53 409 52 156 -1 300 -4
319 -7z"/>
<path d="M2245 5210 c-3 -5 7 -15 22 -21 152 -62 300 -146 411 -233 l64 -49
1046 -1 c1003 -1 1049 -2 1085 -20 47 -23 92 -77 104 -125 6 -22 9 -605 9
-1451 -1 -1299 -2 -1417 -18 -1445 -25 -46 -57 -75 -102 -96 -39 -18 -87 -19
-1051 -19 l-1010 0 -36 -33 c-66 -60 -189 -150 -189 -140 0 4 -4 3 -8 -3 -6
-10 -173 -102 -190 -105 -29 -5 -54 -21 -45 -30 11 -11 2665 -8 2703 4 14 5
30 9 35 11 6 2 23 8 38 14 16 7 33 12 38 12 5 0 9 3 9 8 0 4 14 13 31 21 17 7
59 41 94 75 66 64 121 164 144 258 8 33 11 461 10 1490 0 1584 3 1489 -61
1612 -57 107 -160 196 -290 249 l-53 22 -1392 3 c-937 2 -1394 -1 -1398 -8z"/>
<path d="M2462 1199 c-28 -3 -52 -15 -70 -32 l-26 -27 -1 -187 0 -188 -65 -2
c-36 -1 -96 -4 -135 -7 -38 -3 -104 -8 -145 -11 -41 -3 -95 -8 -120 -10 -25
-3 -70 -7 -100 -10 -56 -5 -135 -14 -180 -20 -14 -2 -50 -7 -80 -10 -30 -3
-66 -8 -80 -10 -14 -2 -43 -6 -65 -10 -23 -3 -52 -7 -65 -10 -13 -3 -42 -7
-65 -10 -205 -30 -415 -72 -443 -91 -21 -14 -23 -20 -17 -57 4 -23 10 -46 14
-52 4 -5 22 -53 40 -105 21 -60 42 -104 59 -119 26 -23 34 -24 112 -6 14 3 36
7 50 10 14 3 36 7 50 10 36 8 120 25 155 31 157 28 267 46 300 49 22 3 58 7
80 10 142 20 227 30 340 40 58 5 108 9 315 21 207 13 732 7 975 -10 100 -7
211 -17 241 -21 17 -2 57 -7 90 -10 32 -4 73 -9 89 -11 17 -3 48 -7 69 -9 34
-4 63 -8 141 -21 11 -2 38 -6 60 -9 22 -3 65 -10 95 -16 30 -6 66 -12 80 -15
14 -2 36 -7 50 -9 14 -3 36 -7 50 -10 14 -3 71 -14 127 -26 l102 -21 29 21
c16 11 33 33 38 48 9 34 9 34 17 53 4 8 20 52 37 98 38 106 32 138 -30 147 -8
1 -71 14 -140 28 -69 14 -141 28 -160 31 -19 3 -46 8 -60 10 -14 3 -41 7 -60
10 -19 3 -46 8 -60 10 -63 11 -130 20 -215 30 -33 4 -67 9 -75 11 -8 2 -46 7
-85 11 -38 3 -86 8 -105 10 -19 2 -60 6 -90 8 -30 3 -55 6 -55 6 0 1 -25 3
-55 5 -235 17 -254 18 -277 14 -4 -1 -21 -1 -38 0 l-30 1 1 177 c0 98 -3 189
-8 204 -5 14 -22 33 -39 43 -27 16 -59 18 -277 20 -136 0 -266 -2 -290 -5z"/>
</g>
</svg>
