<svg xmlns="http://www.w3.org/2000/svg" xmlns:xlink="http://www.w3.org/1999/xlink" viewBox="0 0 306.99 129.64">
	<defs>
		<style>
			.cls-1 {
				fill: url(#linear-gradient);
			}

			.cls-2 {
				fill: #1d1d1b;
			}

			.cls-3 {
				fill: #f9b015;
			}

			.cls-4 {
				fill: url(#linear-gradient-2);
			}

			.cls-5 {
				fill: #0265a9;
			}
		</style>
		<linearGradient id="linear-gradient" x1="57.19" y1="49" x2="197.93" y2="49" gradientUnits="userSpaceOnUse">
			<stop offset="0" stop-color="#144e83" />
			<stop offset="1" stop-color="#0265a9" />
		</linearGradient>
		<linearGradient id="linear-gradient-2" x1="77.96" y1="116.81" x2="177.18" y2="116.81"
			gradientUnits="userSpaceOnUse">
			<stop offset="0" stop-color="#074473" />
			<stop offset="1" stop-color="#0265a9" />
		</linearGradient>
	</defs>
	<g id="Layer_2" data-name="Layer 2">
		<g id="Layer_2-2" data-name="Layer 2">
			<path class="cls-1"
				d="M58.56,83.44a5,5,0,0,0,.85.29,4.94,4.94,0,0,0,1,.11c.31,0,.83,0,1.47,0h3.28a5.56,5.56,0,0,0,1.61-.17,4.63,4.63,0,0,0,1.18-.51l.85-.7v2.25a5.38,5.38,0,0,0,.09,1,5.31,5.31,0,0,0,.33,1,5.07,5.07,0,0,0,1.33,1.8,5.26,5.26,0,0,0,2.11,1.09,6.27,6.27,0,0,0,1.2.15h99.3c3.93.07,6.94.06,8.35,0a5.15,5.15,0,0,0,1.36-.25,4.91,4.91,0,0,0,2.1-1.35,5.1,5.1,0,0,0,1.15-2,5,5,0,0,0,.21-1.73V82.87a4.35,4.35,0,0,0,1.3.91,4.66,4.66,0,0,0,2.21.42c1.85,0,3.24,0,4.32,0a5,5,0,0,0,2-.24,4.73,4.73,0,0,0,1-.54,4.55,4.55,0,0,0,.7-.6c0,.52,0,1.23,0,2.06a15.39,15.39,0,0,1-.31,2.84,13.36,13.36,0,0,1-1.06,3,13.18,13.18,0,0,1-3.27,4.15,13,13,0,0,1-5.62,2.78,13.12,13.12,0,0,1-1.38.22c-65.88-.16-111-.17-114.53.08A13.17,13.17,0,0,1,68,97.75a13.59,13.59,0,0,1-5.12-2.13A12.9,12.9,0,0,1,59.32,92a12.65,12.65,0,0,1-1.25-2.46l-.66-2.42c-.09-.6-.15-1.25-.19-1.95s0-1.54,0-2.21v-.43A4.42,4.42,0,0,0,58.56,83.44ZM57.49,14.5l.26-.21a4.48,4.48,0,0,1,.76-.45,4.32,4.32,0,0,1,1-.32,4.43,4.43,0,0,1,.8-.09c2.85,0,5,0,5.53,0l.46.05a5.43,5.43,0,0,1,1,.28,5,5,0,0,1,.9.51,4.7,4.7,0,0,1,.59.52V13.51a5,5,0,0,1,0-.66c0-.3.08-.53.09-.6a5.17,5.17,0,0,1,.36-1.08,4.93,4.93,0,0,1,1.21-1.64,5,5,0,0,1,2.09-1.14,5,5,0,0,1,1.3-.17H177.36a23.1,23.1,0,0,1,4.32,0,5.25,5.25,0,0,1,1.56.38,4.92,4.92,0,0,1,1.61,1.09,5.21,5.21,0,0,1,.8,1,5.51,5.51,0,0,1,.61,1.78,5.61,5.61,0,0,1,.05,1.18v1.4l.32-.29a4.59,4.59,0,0,1,.6-.42,4.39,4.39,0,0,1,1.09-.46,4.76,4.76,0,0,1,.76-.14l3.43,0c.79,0,1.45,0,2,0a5.44,5.44,0,0,1,1.4.17,4.65,4.65,0,0,1,1.23.56,4.75,4.75,0,0,1,.78.65,16.47,16.47,0,0,0-.06-3.32,13.62,13.62,0,0,0-1-4,13.08,13.08,0,0,0-2.52-3.79,12.87,12.87,0,0,0-3.61-2.67A13.29,13.29,0,0,0,185.59.06a14.21,14.21,0,0,0-2.23,0H71.5A14.23,14.23,0,0,0,69,.1a13.64,13.64,0,0,0-4.34,1.23A13,13,0,0,0,60,5a12.75,12.75,0,0,0-2.35,4.66,16.4,16.4,0,0,0-.46,3.43c0,.67,0,1.24,0,1.65Z" />
		</g>
		<g id="Layer_1-2" data-name="Layer 1">
			<path class="cls-2"
				d="M194.21,19.36H190A3.65,3.65,0,0,0,186.31,23V74.34A3.64,3.64,0,0,0,190,78h4.26a3.64,3.64,0,0,0,3.64-3.64V23A3.65,3.65,0,0,0,194.21,19.36Z" />
			<path class="cls-2"
				d="M65.14,19.36H60.88A3.65,3.65,0,0,0,57.24,23V74.34A3.64,3.64,0,0,0,60.88,78h4.26a3.64,3.64,0,0,0,3.64-3.64V23A3.65,3.65,0,0,0,65.14,19.36Z" />
			<path class="cls-2"
				d="M0,74.34V23a3.63,3.63,0,0,1,3.63-3.63H23.32q12,0,19.25,7.71,7.55,8,7.55,21.54,0,13.9-6.7,21.63T24.85,78H3.63A3.63,3.63,0,0,1,0,74.34Zm12-9.75a3.63,3.63,0,0,0,3.63,3.63h7.65a13.89,13.89,0,0,0,11.19-5.17Q39,57.71,39,48.63q0-8.9-5-14.41A15.18,15.18,0,0,0,22.39,29h-6.8A3.63,3.63,0,0,0,12,32.68Z" />
			<path class="cls-2"
				d="M78.78,74.34V23a3.63,3.63,0,0,1,3.64-3.63H102.1q12,0,19.25,7.71,7.54,8,7.55,21.54,0,13.9-6.7,21.63T103.63,78H82.42A3.63,3.63,0,0,1,78.78,74.34Zm12-9.75a3.63,3.63,0,0,0,3.63,3.63H102a13.89,13.89,0,0,0,11.19-5.17q4.58-5.34,4.58-14.42,0-8.9-5-14.41A15.18,15.18,0,0,0,101.17,29h-6.8a3.63,3.63,0,0,0-3.63,3.64Z" />
			<path class="cls-2"
				d="M143.5,78h-3.84A3.63,3.63,0,0,1,136,74.34V23a3.63,3.63,0,0,1,3.64-3.63h14.26q11.78,0,18.14,5,6,4.73,6.11,13a19.21,19.21,0,0,1-3,10.58A16.18,16.18,0,0,1,169,53.81l-1.61.67,8.78,18.29A3.63,3.63,0,0,1,172.9,78h-3.71a3.63,3.63,0,0,1-3.28-2.08l-9.28-19.63h-5.86a3.64,3.64,0,0,0-3.64,3.64V74.34A3.62,3.62,0,0,1,143.5,78Zm3.63-35.86a3.64,3.64,0,0,0,3.64,3.64h6.54a12.43,12.43,0,0,0,6.78-1.87A6.6,6.6,0,0,0,167.57,38a7.57,7.57,0,0,0-3.82-7A15.85,15.85,0,0,0,155.44,29h-4.67a3.64,3.64,0,0,0-3.64,3.64Z" />
			<path class="cls-2"
				d="M250.38,25.37l-14.27,16.7a1.25,1.25,0,0,0-.1,1.49l19,28.78A3.63,3.63,0,0,1,252,78h-5.27a3.64,3.64,0,0,1-3.05-1.65L228.32,52.81a.85.85,0,0,0-1.36-.09l-6.71,7.87a3.64,3.64,0,0,0-.87,2.36V74.34A3.62,3.62,0,0,1,215.75,78h-4.27a3.63,3.63,0,0,1-3.63-3.63V23a3.63,3.63,0,0,1,3.63-3.63h4.27A3.62,3.62,0,0,1,219.38,23V42.09a1,1,0,0,0,1.84.69l19.21-22.15a3.62,3.62,0,0,1,2.75-1.25h4.44A3.63,3.63,0,0,1,250.38,25.37Z" />
			<path class="cls-3" d="M135.71,11.76v.12a.28.28,0,0,0,0-.12Z" />
			<path class="cls-4"
				d="M136.79,115.41h3.07a233.54,233.54,0,0,1,35.94,4.7,1.49,1.49,0,0,1,1.31,1.87l-2.38,6.59a2,2,0,0,1-2.28,1,205.14,205.14,0,0,0-89.82,0,1.93,1.93,0,0,1-2.27-1L78,121.93a1.51,1.51,0,0,1,1.33-1.87,242.31,242.31,0,0,1,36.76-4.7h2.23Zm0,0v-8.77A2.63,2.63,0,0,0,134.2,104H120.94a2.63,2.63,0,0,0-2.59,2.67v8.72Z" />
			<path class="cls-5"
				d="M207.61,85h2.5a.73.73,0,0,1,.73.73v18.64a.72.72,0,0,1-.73.72h-2.5a.72.72,0,0,1-.72-.72V85.73A.73.73,0,0,1,207.61,85Z" />
			<path class="cls-5"
				d="M227,85.7V88a.73.73,0,0,1-.73.72h-4a.73.73,0,0,0-.73.73v14.89a.72.72,0,0,1-.72.72H218a.72.72,0,0,1-.72-.72V89.48a.73.73,0,0,0-.73-.73H212.3a.73.73,0,0,1-.73-.72V85.7a.73.73,0,0,1,.73-.73h13.95A.73.73,0,0,1,227,85.7Z" />
			<path class="cls-5"
				d="M231.73,100.1c0-5.93,8.78-6.41,8.78-10.3,0-1-.46-1.78-1.55-1.78s-2,1-2,2.44c0,3.28,4,7.69,7.77,10.21a13.29,13.29,0,0,0,4.27,2l-.83,2.73a15.54,15.54,0,0,1-5.45-2.61c-4.47-3.19-8.57-8.44-8.57-12.35a4.61,4.61,0,0,1,4.79-4.74,3.87,3.87,0,0,1,4.21,4c0,5-8.2,6.3-8.2,10.13a3,3,0,0,0,3.28,2.95,6.2,6.2,0,0,0,4.15-2.08A13.63,13.63,0,0,0,245.28,96a2,2,0,0,1,2-1.44h1.55a20.29,20.29,0,0,1-4.14,7.7,9,9,0,0,1-6.87,3.14C234,105.44,231.73,103.08,231.73,100.1Z" />
			<path class="cls-5"
				d="M255.06,104.37V85.73a.73.73,0,0,1,.73-.73h7.27a8.68,8.68,0,0,1,6.6,2.65A10.27,10.27,0,0,1,272.25,95q0,4.77-2.3,7.42a7.93,7.93,0,0,1-6.36,2.64h-7.8A.73.73,0,0,1,255.06,104.37Zm4.11-3.35a.72.72,0,0,0,.72.73H263a4.78,4.78,0,0,0,3.84-1.77,7.33,7.33,0,0,0,1.57-5,7.09,7.09,0,0,0-1.71-4.94,5.23,5.23,0,0,0-4-1.77h-2.85a.72.72,0,0,0-.72.72Z" />
			<path class="cls-5"
				d="M284.75,95.67c0,.35,0,1.48-.06,3.38,0,.89,0,1.61,0,2.18,0,.79,0,1.45,0,2s0,1.27,0,1.89h-3.29l-.29-1s0,0,0,0a.57.57,0,0,1-.17.12l-.7.32a13,13,0,0,1-3,.7A4.76,4.76,0,0,1,273.3,104a3.89,3.89,0,0,1-1.22-4.16q.66-2.44,3.75-3.43a16,16,0,0,1,2.67-.52,22.77,22.77,0,0,1,2.44-.12v-1a4.05,4.05,0,0,0-.14-.9,1.79,1.79,0,0,0-1.75-1,2.73,2.73,0,0,0-2,.64,4,4,0,0,0-.61.73,7.54,7.54,0,0,0-.5.81l-2.85-1.65a5.65,5.65,0,0,1,1.78-2.21,5.55,5.55,0,0,1,3.34-1q3.4,0,4.91,1.16Q284.76,92.57,284.75,95.67Zm-6.25,6.78a3.07,3.07,0,0,0,2.38-2.36,3.42,3.42,0,0,0,.15-1.54,9.09,9.09,0,0,0-4.22.5,2.09,2.09,0,0,0-1.28,1.48,1.6,1.6,0,0,0,.38,1.57A2.74,2.74,0,0,0,278.5,102.45Z" />
			<path class="cls-5"
				d="M291.41,101.05a2.2,2.2,0,0,0,2.53.58l.72,3.17a9.52,9.52,0,0,1-2.55.29,5.2,5.2,0,0,1-3.61-1.33,3.68,3.68,0,0,1-1.16-1.89,15.69,15.69,0,0,1-.21-3.14V93.49h-2.32V90.18h2.32V85.67a.73.73,0,0,1,.73-.73h2.21a.73.73,0,0,1,.73.73v4.51h3.46v3.31H290.8V99c0,.29,0,.53,0,.73A2.3,2.3,0,0,0,291.41,101.05Z" />
			<path class="cls-5"
				d="M307,95.67c0,.35,0,1.48-.05,3.38,0,.89,0,1.61,0,2.18,0,.79,0,1.45,0,2s0,1.27,0,1.89h-3.29l-.29-1s0,0,0,0a.46.46,0,0,1-.17.12l-.7.32a13,13,0,0,1-3,.7,4.77,4.77,0,0,1-3.84-1.28,3.9,3.9,0,0,1-1.22-4.16q.66-2.44,3.75-3.43a16,16,0,0,1,2.67-.52,22.77,22.77,0,0,1,2.44-.12v-1a3.54,3.54,0,0,0-.14-.9c-.23-.6-.82-.93-1.75-1a2.73,2.73,0,0,0-2,.64,4.41,4.41,0,0,0-.61.73c-.14.19-.3.47-.5.81l-2.85-1.65a5.65,5.65,0,0,1,1.78-2.21,5.55,5.55,0,0,1,3.34-1q3.4,0,4.92,1.16Q307,92.57,307,95.67Zm-6.25,6.78a3.08,3.08,0,0,0,2.39-2.36,3.54,3.54,0,0,0,.14-1.54,9,9,0,0,0-4.21.5,2,2,0,0,0-1.28,1.48,1.6,1.6,0,0,0,.37,1.57A2.74,2.74,0,0,0,300.74,102.45Z" />
		</g>
	</g>
</svg>